<!-- created by svgstack.com | Attribution is required. --><svg width="201" height="156" viewBox="0 0 201 156" fill="none" xmlns="http://www.w3.org/2000/svg"><g clip-path="url(#clip0_106_1870)"><path d="M170.224 13.2429C157.286 7.185 143.452 2.78212 128.99 0.275391C127.214 3.48915 125.139 7.81165 123.709 11.2504C108.334 8.93649 93.1015 8.93649 78.0105 11.2504C76.5802 7.81165 74.4576 3.48915 72.666 0.275391C58.1878 2.78212 44.3385 7.20107 31.401 13.2751C5.30587 52.74 -1.76809 91.2251 1.76889 129.163C19.0766 142.099 35.8497 149.956 52.3399 155.098C56.4114 149.49 60.0427 143.529 63.171 137.246C57.2131 134.98 51.5068 132.184 46.1148 128.938C47.5453 127.878 48.9444 126.769 50.2964 125.628C83.1827 141.022 118.914 141.022 151.407 125.628C152.774 126.769 154.174 127.878 155.589 128.938C150.181 132.2 144.459 134.996 138.501 137.262C141.629 143.529 145.245 149.506 149.332 155.114C165.838 149.972 182.627 142.115 199.934 129.163C204.085 85.1831 192.845 47.0516 170.224 13.2429ZM67.6511 105.832C57.7791 105.832 49.6833 96.6077 49.6833 85.376C49.6833 74.1438 57.6061 64.9044 67.6511 64.9044C77.6963 64.9044 85.7918 74.1277 85.6189 85.376C85.635 96.6077 77.6963 105.832 67.6511 105.832ZM134.052 105.832C124.18 105.832 116.084 96.6077 116.084 85.376C116.084 74.1438 124.007 64.9044 134.052 64.9044C144.097 64.9044 152.193 74.1277 152.02 85.376C152.02 96.6077 144.097 105.832 134.052 105.832Z" fill="#5865F2"/></g><defs><clipPath id="clip0_106_1870"><rect width="200" height="154.839" fill="white" transform="translate(0.920166 0.275391)"/></clipPath></defs></svg> 